{"accessors" : [{"bufferView" : 0, "byteOffset" : 0, "componentType" : 5123, "count" : 936, "type" : "SCALAR", "max" : [157], "min" : [0]}, {"bufferView" : 1, "byteOffset" : 0, "componentType" : 5126, "count" : 158, "type" : "VEC3", "max" : [696.972412109375, -5.790877342224121, 597.8271484375], "min" : [-756.6806640625, -6.095727443695068, -605.95751953125], "name" : "POSITION"}, {"bufferView" : 1, "byteOffset" : 12, "componentType" : 5126, "count" : 158, "type" : "VEC2", "max" : [0, -0], "min" : [0, -0], "name" : "TEXCOORD_0"}, {"bufferView" : 0, "byteOffset" : 1872, "componentType" : 5123, "count" : 15165, "type" : "SCALAR", "max" : [2373], "min" : [0]}, {"bufferView" : 2, "byteOffset" : 0, "componentType" : 5126, "count" : 2374, "type" : "VEC3", "max" : [813.0509643554688, -5.181537628173828, 752.2540893554688], "min" : [-813.0508422851562, -6.0957818031311035, -752.2539672851562], "name" : "POSITION"}, {"bufferView" : 2, "byteOffset" : 12, "componentType" : 5126, "count" : 2374, "type" : "VEC2", "max" : [0, -0], "min" : [0, -0], "name" : "TEXCOORD_0"}, {"bufferView" : 0, "byteOffset" : 32204, "componentType" : 5123, "count" : 131619, "type" : "SCALAR", "max" : [25371], "min" : [0]}, {"bufferView" : 3, "byteOffset" : 0, "componentType" : 5126, "count" : 25372, "type" : "VEC3", "max" : [667.8094482421875, 6.096685409545898, 578.2242431640625], "min" : [-719.7230834960938, -6.095710277557373, -597.464111328125], "name" : "POSITION"}, {"bufferView" : 3, "byteOffset" : 12, "componentType" : 5126, "count" : 25372, "type" : "VEC2", "max" : [0, -0], "min" : [0, -0], "name" : "TEXCOORD_0"}], "asset" : {"generator" : "Aspose.3D 21.3.1", "version" : "2.0"}, "buffers" : [{"uri" : "buffer.bin", "byteLength" : 3249860}], "bufferViews" : [{"buffer" : 0, "byteOffset" : 0, "byteLength" : 295444, "target" : 34963}, {"buffer" : 0, "byteOffset" : 295448, "byteLength" : 18720, "byteStride" : 20, "target" : 34962}, {"buffer" : 0, "byteOffset" : 314172, "byteLength" : 303300, "byteStride" : 20, "target" : 34962}, {"buffer" : 0, "byteOffset" : 617476, "byteLength" : 2632380, "byteStride" : 20, "target" : 34962}], "materials" : [{"pbrMetallicRoughness" : {"baseColorFactor" : [0.8, 0.8, 0.8, 1], "metallicFactor" : 0, "roughnessFactor" : 0}, "emissiveFactor" : [0, 0, 0], "alphaMode" : "OPAQUE", "doubleSided" : false}, {"pbrMetallicRoughness" : {"baseColorFactor" : [0.3058823529411765, 0.3058823529411765, 0.3058823529411765, 1], "metallicFactor" : 0, "roughnessFactor" : 0}, "emissiveFactor" : [0, 0, 0], "alphaMode" : "OPAQUE", "doubleSided" : false}, {"pbrMetallicRoughness" : {"baseColorFactor" : [1, 0, 0, 1], "metallicFactor" : 0, "roughnessFactor" : 0}, "emissiveFactor" : [0, 0, 0], "alphaMode" : "OPAQUE", "doubleSided" : false}], "meshes" : [{"primitives" : [{"attributes" : {"POSITION" : 1, "TEXCOORD_0" : 2}, "indices" : 0, "material" : 0, "mode" : 4}]}, {"primitives" : [{"attributes" : {"POSITION" : 4, "TEXCOORD_0" : 5}, "indices" : 3, "material" : 1, "mode" : 4}]}, {"primitives" : [{"attributes" : {"POSITION" : 7, "TEXCOORD_0" : 8}, "indices" : 6, "material" : 2, "mode" : 4}]}], "nodes" : [{"mesh" : 0, "name" : "CityEngineMaterial_1"}, {"mesh" : 1, "name" : "CityEngineMaterial_2"}, {"mesh" : 2, "name" : "CityEngineMaterial"}], "scene" : 0, "scenes" : [{"nodes" : [0, 1, 2]}]}